#!OML:ASF G:\JayActor3\Patient Classification 1\Patient 1\Session 5\male.ASF
:FULLY-SPECIFIED
:DEGREES
1146
root -50.2064 17.3667 -5.06824 159.438 95.6008 157.751
lowerback 1.49191 -0.10705 3.27984
upperback -0.274249 -0.0952962 -1.53977
thorax -1.12654 -0.0732422 -3.42153
lowerneck -5.92078 0.712401 2.12608
upperneck 14.6133 0.696161 1.3676
head 5.37859 0.617025 0.126736
rclavicle -1.67725e-014 7.95139e-015
rhumerus -36.3715 -4.11339 -87.7188
rradius 27.7786
rwrist 0.532027
rhand -21.0569 -9.77193
rfingers 7.12502
rthumb 5.31942 -39.6852
lclavicle -1.67725e-014 7.95139e-015
lhumerus -36.3133 12.5964 75.9345
lradius 17.4448
lwrist 10.5686
lhand -17.122 14.1661
lfingers 7.12502
lthumb 9.11762 43.949
rfemur 5.70586 4.78023 25.6894
rtibia 26.3953
rfoot -13.806 -5.23326
rtoes -4.51587
lfemur -11.0415 5.93069 -16.7759
ltibia 20.6629
lfoot -1.83325 -14.2763
ltoes -13.8354
1147
root -50.2721 17.3608 -5.04556 158.824 95.5427 157.091
lowerback 1.42528 -0.119546 3.35923
upperback -0.248011 -0.112583 -1.51275
thorax -1.06378 -0.0807422 -3.43801
lowerneck -5.92392 0.69463 2.11487
upperneck 14.5021 0.674814 1.34423
head 5.34446 0.601737 0.119418
rclavicle -1.08338e-014 6.36111e-015
rhumerus -36.3746 -4.0858 -87.6912
rradius 27.786
rwrist 0.509431
rhand -21.0591 -9.78814
rfingers 7.12502
rthumb 5.31726 -39.7014
lclavicle -1.08338e-014 6.36111e-015
lhumerus -36.2931 12.613 75.9721
lradius 17.41
lwrist 10.508
lhand -17.0849 14.236
lfingers 7.12502
lthumb 9.15347 44.0173
rfemur 5.71514 4.65577 25.7827
rtibia 25.96
rfoot -13.9735 -5.14497
rtoes -4.18123
lfemur -11.3857 5.69518 -16.6993
ltibia 20.7529
lfoot -1.83704 -14.0347
ltoes -13.4013
1148
root -50.3368 17.3538 -5.02404 158.279 95.4874 156.511
lowerback 1.40278 -0.126146 3.43445
upperback -0.252728 -0.120649 -1.48599
thorax -1.05681 -0.0851877 -3.45265
lowerneck -5.89016 0.674803 2.12016
upperneck 14.401 0.652141 1.31106
head 5.3073 0.586472 0.106176
rclavicle -1.48343e-014 -3.97569e-015
rhumerus -36.4417 -4.06947 -87.6447
rradius 27.7926
rwrist 0.487408
rhand -21.0572 -9.79358
rfingers 7.12502
rthumb 5.31917 -39.7068
lclavicle -1.48343e-014 -3.97569e-015
lhumerus -36.3283 12.6204 76.0011
lradius 17.3797
lwrist 10.4476
lhand -17.0518 14.3411
lfingers 7.12502
lthumb 9.18534 44.121
rfemur 5.72876 4.48391 25.8534
rtibia 25.5359
rfoot -14.2115 -5.05707
rtoes -3.72104
lfemur -11.7119 5.48271 -16.6333
ltibia 20.8334
lfoot -1.8236 -13.8067
ltoes -12.906
1149
root -50.4001 17.3454 -5.00381 157.779 95.4408 155.988
lowerback 1.38901 -0.126444 3.51455
upperback -0.255354 -0.119989 -1.46013
thorax -1.05188 -0.0852992 -3.47118
lowerneck -5.84943 0.650766 2.12962
upperneck 14.2985 0.623554 1.27822
head 5.26853 0.568598 0.0919917
rclavicle 1.90585e-014 1.82882e-014
rhumerus -36.517 -4.07205 -87.583
rradius 27.7852
rwrist 0.482878
rhand -21.0563 -9.79467
rfingers 7.12502
rthumb 5.31999 -39.7079
lclavicle 1.90585e-014 1.82882e-014
lhumerus -36.3658 12.6328 76.0272
lradius 17.3418
lwrist 10.3891
lhand -17.0119 14.3762
lfingers 7.12502
lthumb 9.22386 44.1544
rfemur 5.77078 4.2542 25.9055
rtibia 25.1085
rfoot -14.5159 -4.94169
rtoes -3.19939
lfemur -12.0152 5.31286 -16.5758
ltibia 20.9221
lfoot -1.80373 -13.5802
ltoes -12.3219
1150
root -50.4625 17.3356 -4.98472 157.282 95.3917 155.482
lowerback 1.40205 -0.136968 3.59009
upperback -0.249952 -0.132167 -1.42514
thorax -1.05483 -0.0918121 -3.47736
lowerneck -5.87961 0.643514 2.13949
upperneck 14.2188 0.616123 1.23407
head 5.24905 0.560525 0.0759258
rclavicle -1.23992e-014 -2.42517e-014
rhumerus -36.5614 -4.0465 -87.5137
rradius 27.7499
rwrist 0.490762
rhand -21.0602 -9.79758
rfingers 7.12502
rthumb 5.31622 -39.7109
lclavicle -1.23992e-014 -2.42517e-014
lhumerus -36.3996 12.6876 76.0551
lradius 17.3107
lwrist 10.3374
lhand -16.9773 14.3325
lfingers 7.12502
lthumb 9.25722 44.1093
rfemur 5.84218 3.96214 25.9408
rtibia 24.6719
rfoot -14.8936 -4.77543
rtoes -2.76114
lfemur -12.3122 5.17494 -16.5285
ltibia 21.0292
lfoot -1.75221 -13.347
ltoes -11.5924
1151
root -50.5242 17.3246 -4.96655 156.794 95.3359 154.997
lowerback 1.44356 -0.14778 3.66732
upperback -0.254183 -0.143611 -1.39325
thorax -1.08362 -0.0986772 -3.48771
lowerneck -5.90049 0.635932 2.15766
upperneck 14.1423 0.607785 1.19016
head 5.22904 0.552617 0.0585139
rclavicle -2.90723e-015 3.97569e-016
rhumerus -36.6216 -4.03845 -87.4345
rradius 27.695
rwrist 0.52514
rhand -21.0677 -9.7989
rfingers 7.12502
rthumb 5.30902 -39.7124
lclavicle -2.90723e-015 3.97569e-016
lhumerus -36.4533 12.7245 76.0817
lradius 17.285
lwrist 10.3051
lhand -16.9373 14.2897
lfingers 7.12502
lthumb 9.29582 44.0648
rfemur 5.94697 3.60976 25.9586
rtibia 24.2239
rfoot -15.2922 -4.56738
rtoes -2.33777
lfemur -12.6062 5.07245 -16.4936
ltibia 21.1586
lfoot -1.66813 -13.1094
ltoes -10.6849
1152
root -50.5854 17.3133 -4.94914 156.423 95.276 154.641
lowerback 1.49554 -0.161717 3.72734
upperback -0.245202 -0.159138 -1.35723
thorax -1.10501 -0.107084 -3.48394
lowerneck -5.94004 0.632605 2.15696
upperneck 14.0552 0.604598 1.15827
head 5.20883 0.546719 0.0482972
rclavicle 9.69075e-016 -3.18055e-015
rhumerus -36.6512 -4.02226 -87.3464
rradius 27.6153
rwrist 0.578835
rhand -21.0866 -9.79971
rfingers 7.12502
rthumb 5.29075 -39.7137
lclavicle 9.69075e-016 -3.18055e-015
lhumerus -36.4874 12.7784 76.1183
lradius 17.2594
lwrist 10.2743
lhand -16.8977 14.2832
lfingers 7.12502
lthumb 9.33408 44.0566
rfemur 6.07062 3.21359 25.9491
rtibia 23.7745
rfoot -15.698 -4.29856
rtoes -2.06218
lfemur -12.8947 5.00201 -16.4792
ltibia 21.296
lfoot -1.53704 -12.8648
ltoes -9.60745
1153
root -50.6461 17.3031 -4.93209 156 95.2154 154.242
lowerback 1.56229 -0.171654 3.79011
upperback -0.239847 -0.168589 -1.32005
thorax -1.1379 -0.112776 -3.48064
lowerneck -5.94566 0.628447 2.16102
upperneck 13.9422 0.600595 1.1296
head 5.17482 0.540498 0.038044
rclavicle 1.54058e-015 5.1684e-015
rhumerus -36.686 -4.03164 -87.2455
rradius 27.5133
rwrist 0.661074
rhand -21.1169 -9.80049
rfingers 7.12502
rthumb 5.2615 -39.7152
lclavicle 1.54058e-015 5.1684e-015
lhumerus -36.5238 12.8171 76.1582
lradius 17.2317
lwrist 10.2455
lhand -16.8633 14.3345
lfingers 7.12502
lthumb 9.36727 44.1063
rfemur 6.19405 2.79412 25.9372
rtibia 23.3355
rfoot -16.0803 -3.99862
rtoes -1.93622
lfemur -13.1711 4.95653 -16.4649
ltibia 21.4266
lfoot -1.36991 -12.6098
ltoes -8.4092
1154
root -50.7067 17.2939 -4.91548 155.549 95.1502 153.822
lowerback 1.64012 -0.178054 3.85336
upperback -0.233266 -0.172774 -1.28367
thorax -1.17529 -0.115919 -3.47854
lowerneck -5.91347 0.618464 2.15717
upperneck 13.7947 0.588851 1.11617
head 5.12363 0.530538 0.033104
rclavicle -3.01904e-015 -1.15295e-014
rhumerus -36.7124 -4.07922 -87.13
rradius 27.3812
rwrist 0.777256
rhand -21.1543 -9.78616
rfingers 7.12502
rthumb 5.22536 -39.7017
lclavicle -3.01904e-015 -1.15295e-014
lhumerus -36.5497 12.8531 76.197
lradius 17.195
lwrist 10.1929
lhand -16.8342 14.4213
lfingers 7.12502
lthumb 9.39528 44.1919
rfemur 6.30535 2.37341 25.9213
rtibia 22.9245
rfoot -16.4196 -3.69075
rtoes -1.68714
lfemur -13.4309 4.92314 -16.4541
ltibia 21.5293
lfoot -1.15677 -12.3561
ltoes -7.14729
1155
root -50.7667 17.2866 -4.89924 154.906 95.0736 153.219
lowerback 1.72062 -0.187915 3.92537
upperback -0.216058 -0.181207 -1.24313
thorax -1.20366 -0.120852 -3.47696
lowerneck -5.87941 0.610747 2.15605
upperneck 13.6277 0.579886 1.10167
head 5.06617 0.521618 0.0275019
rclavicle -9.23106e-015 8.74653e-015
rhumerus -36.7171 -4.14825 -87.0051
rradius 27.2227
rwrist 0.919268
rhand -21.1931 -9.78103
rfingers 7.12502
rthumb 5.18788 -39.6975
lclavicle -9.23106e-015 8.74653e-015
lhumerus -36.5524 12.9019 76.2363
lradius 17.1479
lwrist 10.1084
lhand -16.8223 14.5115
lfingers 7.12502
lthumb 9.40684 44.2816
rfemur 6.40168 1.95587 25.9192
rtibia 22.5429
rfoot -16.7098 -3.42841
rtoes -1.28683
lfemur -13.671 4.89027 -16.434
ltibia 21.6088
lfoot -0.911097 -12.1148
ltoes -5.92987
1156
root -50.8263 17.281 -4.88388 154.066 94.9973 152.421
lowerback 1.80608 -0.195737 4.01926
upperback -0.201533 -0.186027 -1.20127
thorax -1.23734 -0.124292 -3.48644
lowerneck -5.8119 0.595568 2.15464
upperneck 13.4421 0.561625 1.09151
head 4.99727 0.508192 0.0225869
rclavicle 6.17475e-015 -8.34896e-015
rhumerus -36.7251 -4.23981 -86.8732
rradius 27.047
rwrist 1.07779
rhand -21.2325 -9.77805
rfingers 7.12502
rthumb 5.1499 -39.6955
lclavicle 6.17475e-015 -8.34896e-015
lhumerus -36.5539 12.959 76.2674
lradius 17.0961
lwrist 9.98958
lhand -16.823 14.6659
lfingers 7.12502
lthumb 9.40616 44.4361
rfemur 6.47064 1.56196 25.936
rtibia 22.1914
rfoot -16.9294 -3.22536
rtoes -0.712906
lfemur -13.9019 4.84321 -16.3992
ltibia 21.6666
lfoot -0.639287 -11.8772
ltoes -4.85426
